<?xml version="1.0" encoding="utf-8"?>
<!-- Generator: Adobe Illustrator 22.1.0, SVG Export Plug-In . SVG Version: 6.00 Build 0)  -->
<svg version="1.1" id="圖層_1" xmlns="http://www.w3.org/2000/svg" xmlns:xlink="http://www.w3.org/1999/xlink" x="0px" y="0px"
	 viewBox="0 0 211.3 89.1" style="enable-background:new 0 0 211.3 89.1;" xml:space="preserve">
<g>
	<path d="M8.5,14.2l-2.1,2.5c-1.7-1.7-3.7-3.3-6-4.5l1.9-2.6C4.8,10.9,6.9,12.5,8.5,14.2z M8.5,20.1c-1.5,4.3-3.3,8.2-5.4,11.8
		l-2.5-2.1c2.2-3.7,3.9-7.5,5.1-11.3L8.5,20.1z M9.1,6L6.9,8.3C5.2,6.4,3.2,4.7,0.8,3l2.3-2.3C5.5,2.4,7.5,4.1,9.1,6z M29.1,17.4
		H13.8v10.3c2.6-0.8,4.6-1.6,6.1-2.2l0.3,3.1c-3,1.3-6.1,2.4-9.3,3.2l-1-2.7c0.6-0.4,0.9-0.8,0.9-1.3V4.1h7.6
		c-0.3-0.9-0.8-1.8-1.5-2.8l3.3-0.7c0.6,0.8,1.2,1.9,1.8,3.4h7.3V17.4z M26,9.3V6.9H13.8v2.4H26z M26,14.5V12H13.8v2.5H26z
		 M31.7,29.1l-1.9,2.7c-5.8-2.9-9.6-7.1-11.6-12.7l3-0.6c0.6,1.6,1.4,3,2.2,4.2c1.7-1.2,3.3-2.5,4.7-4l2.4,2c-1.5,1.6-3.2,3-5,4.3
		C27.1,26.6,29.2,28,31.7,29.1z"/>
	<path d="M67.9,20.4c-1.4,4.2-3.1,8.1-5,11.5l-2.7-2c1.9-3.3,3.6-7.2,5.1-11.5L67.9,20.4z M68.1,14.3L66,16.7
		c-1.8-1.8-3.7-3.4-5.6-4.8l2-2.5C64.7,11,66.6,12.7,68.1,14.3z M69.1,5.3l-2.4,2.3C65,6,63.1,4.4,61,3l2.3-2.3
		C65.4,2.1,67.4,3.6,69.1,5.3z M91.5,29.1l-1.2,2.8c-3.9-0.3-7.4-1.1-10.5-2.2c-3.4,1.1-6.9,1.8-10.6,2.1L67.9,29
		c3-0.2,5.7-0.5,8-1.1c-1.7-1.1-3.2-2.5-4.4-4.1h-1.8v-2.4h18.8v2.4c-1.4,1.7-3.1,3.1-4.9,4.1C86.6,28.6,89.1,29,91.5,29.1z
		 M90.5,19.8H69.3v-7.2h21.2V19.8z M88.6,11.4h-3V3.8H73.9v7.7h-3.1V1.3h17.8V11.4z M75.4,17.5v-2.6h-3.3v2.6H75.4z M84.4,7.3h-9.3
		V5.2h9.3V7.3z M84.4,10.9h-9.3V8.8h9.3V10.9z M84.6,23.8h-9.3c1,1,2.5,1.9,4.5,2.8C81.9,25.8,83.5,24.8,84.6,23.8z M81.5,17.5v-2.6
		h-3.2v2.6H81.5z M87.6,17.5v-2.6h-3.2v2.6H87.6z"/>
	<path d="M151.2,28.1l-0.9,3c-1.4,0-2.9,0-4.7,0c-3.7,0-6.9,0-9.5-0.1c-2.7-0.1-4.8-0.4-6.4-1.1c-1.6-0.6-3-1.5-4-2.5
		c-0.9,1.4-2,2.9-3.5,4.4l-2.3-2c3-3,4.9-6.4,5.7-10h-5v-2.7c1.7-1.9,3.3-3.9,4.7-6.2h-5V8.1h8.6v2.8c-1.5,2.4-3,4.4-4.4,6.2h4.4
		v2.8c-0.5,1.9-1.1,3.7-1.9,5.2c1.2,1.3,2.7,2.2,4.6,2.6c1.8,0.4,5.8,0.6,12,0.6C146,28.3,148.6,28.2,151.2,28.1z M128.6,5l-2.1,2.2
		c-1.6-1.8-3.4-3.2-5.4-4.4l2.1-2.2C125.3,1.9,127.1,3.4,128.6,5z M150.8,14.4h-20.9v-2.8h9.2v-4h-4.6c-0.8,1.4-1.5,2.5-2.2,3.3
		l-2.5-1.7c1.6-2.1,3-4.7,4.3-8l2.8,0.6c-0.2,0.8-0.5,1.8-1,3h3.3V0.8h3.1v4.1h7.4v2.8h-7.4v4h8.6V14.4z M148.5,26h-16.2v-9.6h16.2
		V26z M145.4,23.3v-4.1h-10v4.1H145.4z"/>
	<path d="M210.9,15.6h-30.8V13h13.8c-0.2-0.6-0.5-1.2-0.9-1.9h-9.5V1.3h24.2v9.8h-11.3c0.3,0.4,0.5,1.1,0.8,1.9h13.6V15.6z
		 M190.6,26.5c-1.9,1.6-4.7,3.2-8.3,4.8l-1.6-2.5c3-1.2,5.6-2.7,7.8-4.3L190.6,26.5z M207.6,23.7h-10.4v5c0,0.8-0.3,1.5-0.9,2.1
		c-0.6,0.5-2.6,0.8-6,0.8l-1.1-2.8c0.9,0.1,1.6,0.1,2.3,0.1c0.9,0,1.5,0,1.9-0.1c0.4-0.1,0.6-0.3,0.6-0.6v-4.5h-10.7v-6.4h24.2V23.7
		z M204.4,5.1V3.8h-17.8v1.3H204.4z M204.4,8.7V7.3h-17.8v1.4H204.4z M204.4,21.3v-1.7h-17.7v1.7H204.4z M210.3,28.9l-1.8,2.3
		c-2.5-1.7-5.1-3.1-7.9-4.4l1.8-2.3C205.5,25.9,208.1,27.3,210.3,28.9z"/>
</g>
<g>
	<path d="M30.8,63.5c-0.2,2-0.9,4.2-2.1,6.7l-2.8-0.9c0.5-1.1,0.9-2.1,1.2-3.1H15.7v1.5l9-0.3l0.1,2.4l-9.1,0.3v0.5
		c0,0.7,0.4,1,1.1,1h10.8v2.5H15.8c-0.9,0-1.6-0.2-2.2-0.7c-0.6-0.5-0.9-1.2-0.9-2.2v-1l-5.2,0.2l-0.1-2.4l5.3-0.2v-1.6H5.8v10.9
		c0,4.2-1,8.1-2.9,11.5l-2.6-1.9c1.6-2.8,2.4-6.7,2.4-11.5V63.5h10.7v-5.7h3.1v1.6h12.2v2.6H16.5v1.6H30.8z M31.5,85.5l-0.9,2.9
		c-6.6,0.1-10.8,0-12.7-0.3c-1.8-0.3-3.6-0.9-5.2-2c-1.2,0.9-2.8,1.9-5,2.9l-1.7-2.5c1.9-0.7,3.4-1.4,4.4-2.2
		c-0.4-0.4-0.9-1-1.5-1.8c-0.5,0.6-1,1.1-1.3,1.4l-1.7-2.2c2.1-2.4,3.7-5.1,4.7-8l2.6,0.7c-0.1,0.6-0.3,1.2-0.6,1.7h5.3v2.7
		c-1,2.2-2.1,4-3.2,5.2c1.1,0.6,2.3,1,3.6,1.2c1.3,0.2,3.8,0.3,7.5,0.3C27.5,85.5,29.4,85.5,31.5,85.5z M14.8,78.8h-3.5
		c-0.2,0.4-0.4,0.9-0.8,1.5c0.5,0.8,1.2,1.5,2,2.1C13.5,81.1,14.3,79.9,14.8,78.8z M31,79.9c-0.1,1.7-0.4,2.9-0.8,3.5
		c-0.5,0.7-1.4,1-2.9,1c-1.2,0-2-0.2-2.5-0.6c-0.5-0.4-0.8-1-0.8-1.8v-3.8h-1.6c-0.1,2.9-1,5.1-2.7,6.6l-2.3-1.7
		c1.4-1.2,2.1-3.1,2.1-5.6v-2h7.3V81c0,0.5,0.2,0.7,0.7,0.7c0.4,0,0.7-0.2,0.8-0.6s0.2-1.1,0.2-2L31,79.9z"/>
	<path d="M90.7,63.5c-0.2,2-0.9,4.2-2.1,6.7l-2.8-0.9c0.5-1.1,0.9-2.1,1.2-3.1H75.6v1.5l9-0.3l0.1,2.4l-9.1,0.3v0.5
		c0,0.7,0.4,1,1.1,1h10.8v2.5H75.7c-0.9,0-1.6-0.2-2.2-0.7c-0.6-0.5-0.9-1.2-0.9-2.2v-1l-5.2,0.2l-0.1-2.4l5.3-0.2v-1.6h-6.9v10.9
		c0,4.2-1,8.1-2.9,11.5l-2.6-1.9c1.6-2.8,2.4-6.7,2.4-11.5V63.5h10.7v-5.7h3.1v1.6h12.2v2.6H76.4v1.6H90.7z M91.3,85.5l-0.9,2.9
		c-6.6,0.1-10.8,0-12.7-0.3c-1.8-0.3-3.6-0.9-5.2-2c-1.2,0.9-2.8,1.9-5,2.9l-1.7-2.5c1.9-0.7,3.4-1.4,4.4-2.2
		c-0.4-0.4-0.9-1-1.5-1.8c-0.5,0.6-1,1.1-1.3,1.4l-1.7-2.2c2.1-2.4,3.7-5.1,4.7-8l2.6,0.7c-0.1,0.6-0.3,1.2-0.6,1.7h5.3v2.7
		c-1,2.2-2.1,4-3.2,5.2c1.1,0.6,2.3,1,3.6,1.2c1.3,0.2,3.8,0.3,7.5,0.3C87.4,85.5,89.3,85.5,91.3,85.5z M74.7,78.8h-3.5
		c-0.2,0.4-0.4,0.9-0.8,1.5c0.5,0.8,1.2,1.5,2,2.1C73.4,81.1,74.2,79.9,74.7,78.8z M90.9,79.9c-0.1,1.7-0.4,2.9-0.8,3.5
		c-0.5,0.7-1.4,1-2.9,1c-1.2,0-2-0.2-2.5-0.6c-0.5-0.4-0.8-1-0.8-1.8v-3.8h-1.6c-0.1,2.9-1,5.1-2.7,6.6l-2.3-1.7
		c1.4-1.2,2.1-3.1,2.1-5.6v-2h7.3V81c0,0.5,0.2,0.7,0.7,0.7c0.4,0,0.7-0.2,0.8-0.6s0.2-1.1,0.2-2L90.9,79.9z"/>
	<path d="M134.1,80.7c-4.8,2.3-9.3,4.1-13.4,5.5L120,83c1.7-0.5,3.4-1,5.1-1.7V62.6h-4.5v-3.1h12.1v3.1h-4.4V80
		c1.4-0.5,3.2-1.3,5.5-2.4L134.1,80.7z M150.9,61.8h-9.8l-3.1,8.4h12c-0.1,2.8-0.3,5.7-0.5,8.7s-0.4,4.8-0.7,5.6s-0.6,1.5-1.1,2.1
		c-0.5,0.6-1.1,1.1-1.9,1.5c-0.8,0.3-1.8,0.5-3,0.5c-0.8,0-2.4-0.1-4.7-0.2l-0.9-3.2c2.1,0.1,3.8,0.2,5,0.2c1.2,0,2.1-0.1,2.5-0.4
		c0.4-0.2,0.7-0.6,0.9-1c0.2-0.5,0.4-1.9,0.6-4.3s0.4-4.5,0.5-6.5h-13.3l4.2-11.6h-3.8v-3.1h17V61.8z"/>
	<path d="M187,77.9c-1,3.2-2.5,6.4-4.4,9.3l-2.8-1.6c1.7-2.5,3.2-5.5,4.3-8.8L187,77.9z M207.8,74.5h-24.7v-16h24.7V74.5z M194,65.1
		v-3.7h-7.7l-0.1,3.7H194z M194,71.6v-3.8h-7.8v3.8H194z M204.5,82.2c-0.2,2.2-0.7,3.7-1.3,4.4c-0.6,0.7-1.3,1.1-1.9,1.3
		s-2.7,0.2-6.2,0.2c-2.4,0-3.9-0.1-4.5-0.3c-0.6-0.2-1.1-0.5-1.6-1.1c-0.5-0.6-0.7-1.2-0.7-1.9v-8.5h3.1v7.8c0,0.4,0.2,0.7,0.5,0.8
		s1.6,0.2,3.7,0.2c2.3,0,3.7-0.1,4.2-0.2c0.5-0.1,0.8-0.5,1-1.2c0.2-0.7,0.4-1.6,0.5-2.8L204.5,82.2z M199.9,80.6l-2.6,1.8
		c-0.8-1.7-2-3.5-3.7-5.5l2.5-1.8C197.7,76.9,199,78.7,199.9,80.6z M204.7,65.1v-3.7h-7.8v3.7H204.7z M204.7,71.6v-3.8h-7.8v3.8
		H204.7z M211.2,85.2l-2.8,1.4c-1-2.6-2.7-5.7-4.8-9.2l2.5-1.5C208.3,79.2,210,82.3,211.2,85.2z"/>
</g>
</svg>
