<?xml version="1.0" encoding="utf-8"?>
<!-- Generator: Adobe Illustrator 22.1.0, SVG Export Plug-In . SVG Version: 6.00 Build 0)  -->
<svg version="1.1" id="圖層_1" xmlns="http://www.w3.org/2000/svg" xmlns:xlink="http://www.w3.org/1999/xlink" x="0px" y="0px"
	 viewBox="0 0 395 52" style="enable-background:new 0 0 395 52;" xml:space="preserve">
<style type="text/css">
	.st0{fill:#040000;}
	.st1{enable-background:new    ;}
</style>
<title>Farmnew_title</title>
<path class="st0" d="M166.3,0.3h1.9v49.8h-1.9V0.3z"/>
<g class="st1">
	<path d="M0.3,7.3h7.9L19.5,28l3.9,8.4h0.3c-0.4-4-1-9.2-1-13.6V7.3H30v38.9h-7.9L10.9,25.4L7,17H6.7c0.4,4.2,0.9,9.1,0.9,13.6v15.6
		H0.3V7.3z"/>
</g>
<g class="st1">
	<path d="M37.2,31.5C37.2,22,43.8,16,50.9,16C59,16,63.2,22,63.2,30.1c0,1.4-0.2,2.8-0.4,3.5H44.7c0.6,4.8,3.8,7.4,8.1,7.4
		c2.4,0,4.5-0.7,6.6-2l2.6,4.7c-2.9,2-6.6,3.3-10.3,3.3C43.6,46.9,37.2,41.2,37.2,31.5z M56.5,28.5c0-4-1.8-6.5-5.6-6.5
		c-3.1,0-5.8,2.2-6.4,6.5H56.5z"/>
</g>
<g class="st1">
	<path d="M66.6,16.8h7.7l3.2,14.6c0.6,2.8,0.9,5.7,1.5,8.6h0.2c0.6-2.9,1.1-5.8,1.8-8.6l3.5-14.6h6.9l3.7,14.6
		c0.7,2.8,1.2,5.7,1.8,8.6h0.3c0.5-2.9,0.9-5.7,1.5-8.6l3.2-14.6h7.1l-7.3,29.4h-9.1l-3.1-12.8c-0.6-2.8-1.1-5.5-1.7-8.6h-0.3
		c-0.6,3.1-1,5.8-1.6,8.6l-3,12.8h-8.8L66.6,16.8z"/>
	<path d="M111.9,42.8l3.5-4.8c2.6,2,5.1,3.2,7.9,3.2c2.9,0,4.3-1.3,4.3-3.1c0-2.2-3-3.2-6.1-4.4c-3.7-1.4-8-3.7-8-8.6
		c0-5.3,4.3-9,10.9-9c4.3,0,7.6,1.8,10,3.6l-3.5,4.7c-2.1-1.5-4.2-2.5-6.4-2.5c-2.6,0-3.9,1.2-3.9,2.8c0,2.2,2.9,2.9,6,4.1
		c3.9,1.5,8.2,3.4,8.2,8.9c0,5.1-4,9.3-11.7,9.3C119.1,46.9,114.7,45.2,111.9,42.8z"/>
</g>
<g class="st1">
	<path d="M240.6,27.6c-1.3,4.4-3.5,8-6.3,10.9c2.5,1.7,5.4,3.1,8.7,3.8c-0.9,0.8-2,2.5-2.6,3.5c-3.4-1-6.5-2.6-9.1-4.6
		c-2.7,2.1-5.7,3.6-8.9,4.8c-0.5-1-1.4-2.6-2.3-3.4v3.5h-4.1v-4.3c-5.7,0.6-11.3,1.3-15.6,1.8l-0.4-3.9c1.3-0.1,2.7-0.2,4.3-0.4
		V24.2h-3.9v-3.5h41.4v3.5H220v18.3c2.9-0.9,5.8-2.3,8.2-4.1c-2.1-2.3-3.8-5-5-7.9l1.1-0.3h-2.7v-3.4h15.6l0.7-0.1L240.6,27.6z
		 M210.2,18.8H206V4.3h30.5v14.5H232V7.5h-21.9V18.8z M208.2,24.2v2.6h7.8v-2.6H208.2z M208.2,32.7h7.8V30h-7.8V32.7z M208.2,39
		c2.5-0.2,5.1-0.5,7.8-0.9v-2.3h-7.8V39z M229.9,9.7v2.7h-18V9.7H229.9z M212,14.8h18v2.7h-18V14.8z M227.1,30.1
		c1,2.1,2.4,4.1,4.1,5.8c1.7-1.7,3.1-3.6,4.2-5.8H227.1z"/>
	<path d="M254.5,33c-1.2,3.3-3.1,7.1-4.8,9.5c-0.7-0.6-2.1-1.6-3-2.1c1.7-2.2,3.4-5.4,4.3-8.5L254.5,33z M260.6,29.9v16h-4.3v-16
		h-9.1v-3.7h9.1v-4.3H247v-3.7h5.2c-0.2-1.6-0.9-4.1-1.7-5.9l3.6-0.9c0.8,1.8,1.5,4.3,1.7,5.8l-3.5,1h7.5c0.9-2,1.8-4.9,2.3-6.9
		l4.1,0.9c-0.8,2.1-1.6,4.3-2.4,6h5.5v3.7h-8.7v4.3h8v3.7H260.6z M268.5,11.3h-20.8V7.6h8.6c-0.5-1.3-1.1-2.8-1.7-4l4.3-1.1
		c0.8,1.6,1.7,3.6,2.4,5.2h7.1V11.3z M265.2,31.5c1.6,2.2,3.2,5.2,3.9,7.1l-3.1,1.8c-0.8-2-2.4-5.1-3.8-7.3L265.2,31.5z M290,22.6
		h-4.8v23.4h-4.3V22.6h-5.5v1.1c0,6.8-0.6,16.3-4.8,22.3c-0.7-0.8-2.5-2.1-3.4-2.6c3.7-5.5,4.1-13.5,4.1-19.7V7.3
		c5.2-0.9,11.1-2.4,14.5-3.8l3.5,3.2c-3.9,1.5-9,2.6-13.8,3.5v8.3H290V22.6z"/>
	<path d="M302.4,24.5c-1.9-1.3-5.9-3.6-8.7-5.1l2.4-3.2c2.7,1.3,6.7,3.4,8.7,4.7L302.4,24.5z M307.5,30.6c-2.5,4.9-5.6,10.5-8.4,15
		l-3.8-2.9c2.6-3.6,6.2-9.6,8.9-15L307.5,30.6z M304.9,12.1c-1.9-1.5-5.7-3.8-8.5-5.5l2.6-3.1c2.7,1.5,6.6,3.7,8.6,5.1L304.9,12.1z
		 M334.7,41.1c0,2.2-0.5,3.5-2,4.2c-1.5,0.7-3.9,0.7-7.5,0.7c-0.2-1.1-0.8-3-1.4-4.1c2.4,0.1,5,0.1,5.7,0.1c0.7,0,0.9-0.3,0.9-0.9
		v-7.8c-5.2,1.4-10.7,2.7-14.8,3.7l-1.4-3.7c4.1-0.8,10.2-2.2,16.2-3.6v-9.6h-16.6v9.6c0,5.2-0.4,12.2-3.1,16.8
		c-0.7-0.8-2.5-2-3.5-2.5c2.3-4.1,2.5-9.7,2.5-14.3V16.1h10.3V2.8h4.4v13.3h10.2V41.1z M313,14.8c-0.7-2.4-2.6-6.1-4.5-8.8l3.7-1.7
		c1.9,2.6,4,6.1,4.7,8.5L313,14.8z M316.7,22.6c3.9,0.8,8.8,2.5,11.5,3.8l-1.9,3.1c-2.6-1.4-7.5-3.3-11.4-4.2L316.7,22.6z
		 M336.4,5.6c-1.6,3.2-3.5,6.6-5,8.8l-3.8-1.5c1.6-2.4,3.6-6.1,4.6-8.9L336.4,5.6z"/>
	<path d="M341.3,42c1.7-2.6,3.5-6.6,4.6-9.6l3.8,1.6c-1.1,3.1-2.7,7.2-4.4,10L341.3,42z M361.5,29.7h-13.2V7.1h10.9
		c0.6-1.5,1.2-3.4,1.5-4.8l5.2,0.8c-0.7,1.4-1.5,2.8-2.1,4h13.5v22.6h-14.4c2.2,2,4.5,4.8,5.7,6.7l-3.6,2.2c-1-2.1-3.6-5.2-6-7.4
		L361.5,29.7z M368.7,41.4c2.4,0,2.8-0.7,3-5.3c1,0.7,2.8,1.4,4.1,1.6c-0.6,6.2-1.9,7.7-6.8,7.7h-9.9c-6,0-7.5-1.2-7.5-5.5v-7.2h4.4
		v7.1c0,1.3,0.5,1.6,3.4,1.6H368.7z M352.5,13.6h20.4v-3.1h-20.4V13.6z M352.5,19.9h20.4v-3.1h-20.4V19.9z M352.5,26.2h20.4v-3.1
		h-20.4V26.2z M378.7,31.6c2.1,2.9,4.4,6.9,5.2,9.6l-4.2,1.8c-0.7-2.7-2.9-6.8-5-9.8L378.7,31.6z"/>
</g>
</svg>
