<?xml version="1.0" encoding="utf-8"?>
<!-- Generator: Adobe Illustrator 22.1.0, SVG Export Plug-In . SVG Version: 6.00 Build 0)  -->
<svg version="1.1" id="圖層_1" xmlns="http://www.w3.org/2000/svg" xmlns:xlink="http://www.w3.org/1999/xlink" x="0px" y="0px"
	 viewBox="0 0 395 52" style="enable-background:new 0 0 395 52;" xml:space="preserve">
<style type="text/css">
	.st0{fill:#040000;}
</style>
<path class="st0" d="M0.7,46.6V5h28.5v7H9.1v9.8h17.3v7H9.1v17.6H0.7V46.6z"/>
<path class="st0" d="M42,25.7l-7.3-1.3c0.8-2.9,2.2-5.1,4.2-6.5s4.9-2.1,8.8-2.1c3.5,0,6.2,0.4,7.9,1.3c1.7,0.8,3,1.9,3.7,3.2
	c0.7,1.3,1.1,3.7,1.1,7.1l-0.1,9.3c0,2.6,0.1,4.6,0.4,5.8c0.3,1.3,0.7,2.6,1.4,4h-7.9c-0.2-0.5-0.5-1.3-0.8-2.4
	c-0.1-0.5-0.2-0.8-0.3-0.9c-1.4,1.3-2.8,2.3-4.4,3c-1.5,0.7-3.2,1-5,1c-3.1,0-5.5-0.8-7.3-2.5s-2.7-3.8-2.7-6.4
	c0-1.7,0.4-3.2,1.2-4.5s1.9-2.4,3.4-3.1s3.6-1.3,6.3-1.9c3.7-0.7,6.3-1.3,7.7-2V26c0-1.5-0.4-2.6-1.1-3.3c-0.8-0.7-2.2-1-4.3-1
	c-1.4,0-2.5,0.3-3.3,0.8C43.1,23.3,42.5,24.3,42,25.7z M52.6,32.1c-1,0.3-2.6,0.7-4.8,1.2s-3.7,0.9-4.3,1.4c-1,0.7-1.6,1.7-1.6,2.8
	s0.4,2.1,1.2,2.9c0.8,0.8,1.9,1.2,3.2,1.2c1.4,0,2.8-0.5,4.1-1.4c1-0.7,1.6-1.6,1.9-2.6c0.2-0.7,0.3-2,0.3-3.9
	C52.6,33.7,52.6,32.1,52.6,32.1z"/>
<path class="st0" d="M75.9,46.6h-8V16.5h7.4v4.3c1.3-2,2.4-3.4,3.4-4s2.2-1,3.4-1c1.8,0,3.6,0.5,5.2,1.5l-2.5,6.9
	c-1.3-0.9-2.6-1.3-3.7-1.3s-2.1,0.3-2.8,0.9c-0.8,0.6-1.4,1.7-1.8,3.3c-0.4,1.6-0.7,5-0.7,10.1L75.9,46.6L75.9,46.6z"/>
<path class="st0" d="M90.2,16.5h7.3v4.1c2.6-3.2,5.7-4.8,9.4-4.8c1.9,0,3.6,0.4,5,1.2c1.4,0.8,2.6,2,3.5,3.6
	c1.3-1.6,2.7-2.8,4.3-3.6c1.5-0.8,3.2-1.2,4.9-1.2c2.2,0,4.1,0.4,5.6,1.3s2.7,2.2,3.4,4c0.5,1.3,0.8,3.4,0.8,6.2v19.2h-8V29.4
	c0-3-0.3-4.9-0.8-5.8c-0.7-1.1-1.9-1.7-3.4-1.7c-1.1,0-2.2,0.3-3.1,1c-1,0.7-1.7,1.7-2.1,3s-0.7,3.4-0.7,6.2v14.4h-8V30.1
	c0-2.9-0.1-4.8-0.4-5.7c-0.3-0.8-0.7-1.5-1.3-1.9c-0.6-0.4-1.4-0.6-2.4-0.6c-1.2,0-2.3,0.3-3.3,1s-1.7,1.6-2.1,2.9
	c-0.4,1.2-0.6,3.3-0.6,6.2v14.6h-8C90.2,46.6,90.2,16.5,90.2,16.5z"/>
<path class="st0" d="M166.3,0.3h1.9v49.8h-1.9V0.3z"/>
<g>
	<path d="M243.3,4.5v41.4H239v-1.8h-31v1.8h-4.1V4.5H243.3z M239,40.1V8.5h-31v31.6H239z M225.3,34c-0.1,0.8-0.1,2,0,2.7
		c-8.4,2.3-9.7,2.6-10.4,3.1c-0.2-0.8-0.7-2-1.1-2.5c0.7-0.3,1.7-0.8,1.7-2.6v-2.7c-1.5,0.6-3,1.1-4.5,1.5c-0.4-0.7-1.5-1.9-2.1-2.6
		c3.4-0.8,7.1-2,10-3.4h-6v-6.9h21.7v6.9h-10.7c-1.4,1.1-3.2,2.1-5.1,3v4.9L225.3,34z M237,19.2h-26.9v-2.6h11.4v-2.5h-8.9v-2.6h8.9
		V9.3h4v2.3h9.4v2.6h-9.4v2.5H237V19.2z M216.5,25.6h14.2v-2.6h-14.2V25.6z M237.2,30.1c-1.5,1.1-3.2,2.1-4.7,2.9
		c1.9,1.3,3.6,2.6,4.9,3.7l-2.9,1.7c-2.6-2.3-7.8-6-12-8.5l2.7-1.6c1.5,0.9,3.3,1.9,4.9,3c1.6-0.9,3.3-2.1,4.4-3L237.2,30.1z"/>
	<path d="M283.4,39.9c2.7,0,6.4-0.2,8.2-0.6c0.1,1.1,0.4,3.2,0.7,4.2c-1.5,0.4-5.3,0.5-9,0.5h-19.8c-7.7,0-11.3-2.4-11.3-10V8.4
		h-1.9V4.5h39.6v3.9h-33.5v25.8c0,4,1.6,5.6,6.6,5.6H283.4z M259.4,24.5H272v12.3h-12.5V24.5z M263,33.7h5.2v-6.1H263V33.7z
		 M282.3,21.8h-17.9V11.1h17.9V21.8z M278,14.1h-9.5v4.7h9.5V14.1z M287.7,36.9h-12.9V24.5h12.9V36.9z M283.8,27.6h-5.4v6.1h5.4
		V27.6z"/>
	<path d="M297,28.1c1.2-1.2,2.6-2.3,3.8-3.1l0,0c1.5-1.6,2.8-3.9,3.8-6.2H298c1.1-1.9,2.5-4.3,3.6-6.8h-4.9V8.7h4.3
		c-0.4-1.3-1.3-3.4-1.8-5.1l3.6-1.1c0.7,1.5,1.6,3.5,2,4.9l-3.6,1.3h6.1c-1.1,2.2-2.4,4.7-3.5,6.8h2.7l0.6-0.2l2.1,0.9
		c-0.8,2.7-2.1,5.4-3.5,7.6c0.9,0.4,1.9,1.1,3.5,1.9c2.9,1.6,7.1,1.7,12.1,1.7c5.6,0,13.6-0.4,18.6-1c-0.5,1.1-1.1,2.9-1.1,4
		c-4.2,0.3-12.6,0.5-17.5,0.5c-5.5,0-9.6-0.4-12.7-2c-1.8-0.9-3.1-2.1-4.2-2.1c-1.2,0-3.4,2.3-5.2,4.6L297,28.1z M329.4,33.3h9.5
		v3.4h-9.5v5.1c0,2.1-0.4,3.2-2.1,3.8c-1.6,0.6-4.1,0.6-7.8,0.6c-0.2-1.1-0.8-2.7-1.4-3.8c2.7,0.1,5.3,0.1,6,0c0.8,0,1-0.2,1-0.8v-5
		h-16.6c2.2,1.4,4.7,3.4,6,4.8l-3.2,2.7c-1.3-1.6-4.2-4-6.6-5.5l2.4-2h-10.1v-3.4h28.1v-2.2h4.2V33.3z M320.4,11.7
		c0.2-0.7,0.5-1.3,0.7-2h-11.8V6.6h7.3c-0.5-1.1-1.2-2.3-1.8-3.3l3.5-0.9c1,1.3,2,3,2.5,4.3h6.4c0.8-1.3,1.7-3,2.2-4.1l4.2,0.7
		c-0.8,1.3-1.6,2.4-2.2,3.4h7.3v3.1h-13.4c-0.3,0.7-0.7,1.4-0.9,2h10.8v14h-22.6v-14H320.4z M330.8,13.8h-14.3v1.8h14.3V13.8z
		 M330.8,17.8h-14.3v1.8h14.3V17.8z M330.8,21.7h-14.3v1.9h14.3V21.7z"/>
	<path d="M381.2,42c1.7,0,1.9-0.5,2.1-4c0.9,0.6,2.6,1.1,3.7,1.4c-0.4,4.8-1.7,6-5.3,6H374c-5,0-6.2-0.9-6.2-4.6v-2.6h-6.2
		c-1.5,4.7-5.3,6.8-16,7.8c-0.3-0.9-1.2-2.6-1.9-3.4c9-0.6,12.2-1.7,13.5-4.4h-6.4V22.7h29.1v15.4h-7.8v2.6c0,1.1,0.4,1.2,2.4,1.2
		H381.2z M365.2,21H346V4h18.9v2.7h-7.4v2h6.2V16h-6.2v2.4h7.8V21z M349.7,6.7v2h4.3v-2H349.7z M360,11.2h-10.2v2.3H360V11.2z
		 M349.7,18.3h4.3V16h-4.3V18.3z M355,27h20.6v-1.9H355V27z M355,31.3h20.6v-2H355V31.3z M355,35.6h20.6v-2H355V35.6z M371,8
		c-1.1,1.7-2.5,3.3-4.2,4.7c-0.7-0.9-2-2.1-2.9-2.5c2.8-2.2,4.7-5.2,5.6-7.7l3.9,0.6c-0.2,0.7-0.5,1.3-0.9,1.9h13.8V8H371z
		 M367.2,13.8h18.3v7.4h-18.3V13.8z M384.1,9.6v2.6h-14.2V9.6H384.1z M370.3,19h2.4V16h-2.4V19z M375,19h2.6V16H375V19z M379.8,19
		h2.6V16h-2.6V19z"/>
</g>
</svg>
