<?xml version="1.0" encoding="utf-8"?>
<!-- Generator: Adobe Illustrator 22.1.0, SVG Export Plug-In . SVG Version: 6.00 Build 0)  -->
<svg version="1.1" id="圖層_1" xmlns="http://www.w3.org/2000/svg" xmlns:xlink="http://www.w3.org/1999/xlink" x="0px" y="0px"
	 viewBox="0 0 395 52" style="enable-background:new 0 0 395 52;" xml:space="preserve">
<style type="text/css">
	.st0{fill:#040000;}
	.st1{enable-background:new    ;}
</style>
<title>Farmanimal_title</title>
<path class="st0" d="M178.1,0.3h1.9v49.8h-1.9V0.3z"/>
<g class="st1">
	<path d="M21.5,36.5H8.9L5.8,46.8H0l12-36.2h6.6l12,36.2h-6L21.5,36.5z M20.1,32l-1.4-4.9c-1.2-3.9-2.3-8-3.4-12H15
		c-1,4.1-2.2,8.1-3.3,12L10.2,32H20.1z"/>
	<path d="M34.9,19.8h4.6l0.4,3.7h0.1c2.5-2.4,5.3-4.4,8.9-4.4c5.8,0,8.3,3.8,8.3,10.7v17h-5.7V30.5c0-4.7-1.4-6.5-4.6-6.5
		c-2.5,0-4.2,1.3-6.6,3.7v19.2h-5.6V19.8z"/>
	<path d="M64.8,11.4c0-2,1.5-3.3,3.6-3.3S72,9.3,72,11.4c0,2-1.6,3.3-3.6,3.3S64.8,13.3,64.8,11.4z M65.5,19.8h5.6v27h-5.6V19.8z"/>
	<path d="M79.7,19.8h4.6l0.4,3.8h0.1c2.3-2.5,5-4.5,8.4-4.5c4,0,6.3,1.9,7.5,5c2.7-2.9,5.4-5,8.8-5c5.7,0,8.3,3.8,8.3,10.7v17h-5.7
		V30.5c0-4.7-1.5-6.5-4.5-6.5c-1.9,0-3.8,1.2-6.1,3.7v19.2h-5.7V30.5c0-4.7-1.4-6.5-4.5-6.5c-1.8,0-3.8,1.2-6.1,3.7v19.2h-5.6V19.8z
		"/>
	<path d="M124.4,39.6c0-5.8,4.9-8.8,16.2-10c0-3.1-1.2-5.9-5.2-5.9c-2.9,0-5.5,1.3-7.8,2.8l-2.1-3.8c2.8-1.8,6.6-3.5,10.9-3.5
		c6.7,0,9.8,4.3,9.8,11.5v16.3h-4.6l-0.5-3.1H141c-2.5,2.1-5.4,3.7-8.6,3.7C127.7,47.4,124.4,44.4,124.4,39.6z M140.6,39.8v-6.6
		c-8,1-10.7,3-10.7,6c0,2.7,1.8,3.7,4.2,3.7C136.4,43,138.4,41.8,140.6,39.8z"/>
	<path d="M154.2,40.5V7.6h5.6v33.1c0,1.5,0.7,2.1,1.4,2.1c0.2,0,0.4,0,0.9-0.1l0.7,4.3c-0.7,0.2-1.7,0.4-3,0.4
		C155.8,47.4,154.2,44.8,154.2,40.5z"/>
</g>
<g class="st1">
	<path d="M246.7,15.6c0,0,0,1.5,0,2c-0.5,19-0.9,25.6-2.4,27.6c-0.9,1.4-1.8,1.8-3.3,2c-1.4,0.2-3.5,0.2-5.7,0
		c-0.1-1.2-0.6-2.9-1.2-4.1c2.1,0.2,4,0.2,4.8,0.2c0.8,0,1.2-0.1,1.7-0.7c1-1.3,1.5-7.1,1.8-23h-5.4c-0.6,12.3-2.7,22-10.6,28.1
		c-0.6-1-2.1-2.5-3.1-3.2c0.3-0.2,0.6-0.4,0.8-0.6c-6.6,0.8-13.3,1.5-18.2,1.9l-0.6-3.6c2.7-0.2,6-0.5,9.6-0.8v-3.5h-8.4v-3.1h8.4
		v-2.4h-8.3V18.5h8.3v-2.4h-9.5V13h9.5v-2.6c-2.8,0.2-5.6,0.4-8.2,0.5c-0.1-0.9-0.6-2.3-1-3.1c6.8-0.4,15-1.2,19.8-2.3l2,3.2
		c-2.4,0.5-5.5,1-8.7,1.3v3h9.3v2.7h4.8c0-3.1,0-6.4,0-9.9h4.1c0,3.4,0,6.7-0.1,9.9H246.7z M210.3,24.2h4.7v-2.8h-4.7V24.2z
		 M215.1,29.6v-2.8h-4.7v2.8H215.1z M219,41c2.9-0.3,5.8-0.6,8.7-0.9c3.8-5.2,4.9-12.2,5.3-20.6h-4.9v-3.5H219v2.4h8.6v13.9H219v2.4
		h8.7v3.1H219V41z M223.9,24.2v-2.8H219v2.8H223.9z M219,26.8v2.8h4.9v-2.8H219z"/>
	<path d="M269.1,29.2c-1.8,0.6-3.6,1.2-5.4,1.7v16.5h-4V32.1l-7.2,2.2l-1.1-4.1c2.3-0.6,5.2-1.4,8.3-2.3v-9.7H256
		c-0.6,2.4-1.2,4.7-1.9,6.4c-0.7-0.6-2.3-1.5-3.1-1.9c1.6-3.7,2.4-9.5,2.9-15l3.6,0.6c-0.2,2-0.5,4-0.8,5.9h3V5.1h4v9.1h4.3v4.1
		h-4.3v8.5l4.8-1.4L269.1,29.2z M293.5,12.5c0,0,0,1.5,0,2c-1,20.7-1.9,28-3.7,30.2c-1,1.4-1.9,1.8-3.4,2c-1.2,0.2-3.2,0.2-5.2,0.1
		c0-1.2-0.5-3-1.2-4.2c1.9,0.2,3.6,0.2,4.5,0.2c0.7,0,1.2-0.2,1.7-0.8c1.3-1.5,2.3-8.1,3.1-25.6H288c-2.3,11.9-7.3,24-14.8,30
		c-0.8-0.8-2.4-1.9-3.5-2.5c7.4-5.3,12.3-16.3,14.6-27.5h-3.1c-2,7.7-6,16.2-10.9,20.5c-0.8-0.8-2.2-1.8-3.3-2.4
		c4.7-3.7,8.5-11,10.6-18.1h-3.3c-1.4,3.3-3.1,6.2-5,8.5c-0.7-0.6-2.4-1.9-3.3-2.4c3.7-4.1,6.4-10.6,7.9-17.4l3.9,0.7
		c-0.5,2.3-1.2,4.6-1.9,6.7H293.5z"/>
	<path d="M338.8,42.6v3.7h-40v-3.7h17.8v-4.2h-12.4v-3.4h12.4v-3.6h-10.6c-1.5,1.8-3,3.5-4.5,4.8c-0.8-0.7-2.6-2.1-3.6-2.6
		c3.3-2.4,6.3-6.2,8.1-10h-2.6V6.9h30.7v16.6h-27.4l3.6,1.1c-0.5,1.1-1.2,2.1-1.8,3.2h8.1v-3.3h4.4v3.3h14.8v3.6h-14.8v3.6h12.9v3.4
		h-12.9v4.2H338.8z M307.6,13.5h22.1v-3.3h-22.1V13.5z M307.6,20.1h22.1v-3.4h-22.1V20.1z"/>
	<path d="M384.2,30.8c-2.6,2.2-5.8,4.5-8.5,6.2c2.8,2.7,6.4,4.7,10.6,5.8c-1,0.9-2.2,2.5-2.8,3.7c-9.2-3-14.8-9.5-18.1-18.8h-4.6
		v13.6l8.9-2.4c-0.1,1.2,0,3,0,4c-10.4,3.1-12,3.7-13,4.4c-0.4-0.9-1.6-2.6-2.3-3.3c0.8-0.6,2-1.9,2-4.1V27.8h-4.1
		c-0.4,6.8-1.6,14.5-4.9,20c-0.8-0.7-2.8-1.9-3.9-2.3c4.2-7.1,4.6-17.2,4.6-24.5V7.2h36.4v4.2h-31.9v4.1h29.1v3.9h-29.1v1.5
		c0,0.9,0,1.8,0,2.9h33.1v4h-15.9c1,2.4,2.3,4.7,3.8,6.6c2.5-1.8,5.3-4.1,7.1-6L384.2,30.8z"/>
</g>
</svg>
