<?xml version="1.0" encoding="utf-8"?>
<!-- Generator: Adobe Illustrator 22.1.0, SVG Export Plug-In . SVG Version: 6.00 Build 0)  -->
<svg version="1.1" id="圖層_1" xmlns="http://www.w3.org/2000/svg" xmlns:xlink="http://www.w3.org/1999/xlink" x="0px" y="0px"
	 viewBox="0 0 395 52" style="enable-background:new 0 0 395 52;" xml:space="preserve">
<style type="text/css">
	.st0{fill:#040000;}
	.st1{enable-background:new    ;}
	.st2{stroke:#000000;stroke-width:0.25;stroke-miterlimit:10;}
</style>
<path class="st0" d="M0.7,47.2V5.6h28.5v7H9.1v9.8h17.3v7H9.1V47H0.7V47.2z"/>
<path class="st0" d="M42,26.3L34.7,25c0.8-2.9,2.2-5.1,4.2-6.5s4.9-2.1,8.8-2.1c3.5,0,6.2,0.4,7.9,1.3c1.7,0.8,3,1.9,3.7,3.2
	c0.7,1.3,1.1,3.7,1.1,7.1l-0.1,9.3c0,2.6,0.1,4.6,0.4,5.8c0.3,1.3,0.7,2.6,1.4,4h-7.9c-0.2-0.5-0.5-1.3-0.8-2.4
	c-0.1-0.5-0.2-0.8-0.3-0.9c-1.4,1.3-2.8,2.3-4.4,3c-1.5,0.7-3.2,1-5,1c-3.1,0-5.5-0.8-7.3-2.5s-2.7-3.8-2.7-6.4
	c0-1.7,0.4-3.2,1.2-4.5s1.9-2.4,3.4-3.1s3.6-1.3,6.3-1.9c3.7-0.7,6.3-1.3,7.7-2v-0.8c0-1.5-0.4-2.6-1.1-3.3c-0.8-0.7-2.2-1-4.3-1
	c-1.4,0-2.5,0.3-3.3,0.8C43.1,23.9,42.5,24.9,42,26.3z M52.6,32.7c-1,0.3-2.6,0.7-4.8,1.2s-3.7,0.9-4.3,1.4c-1,0.7-1.6,1.7-1.6,2.8
	s0.4,2.1,1.2,2.9c0.8,0.8,1.9,1.2,3.2,1.2c1.4,0,2.8-0.5,4.1-1.4c1-0.7,1.6-1.6,1.9-2.6c0.2-0.7,0.3-2,0.3-3.9
	C52.6,34.3,52.6,32.7,52.6,32.7z"/>
<path class="st0" d="M75.9,47.2h-8V17.1h7.4v4.3c1.3-2,2.4-3.4,3.4-4s2.2-1,3.4-1c1.8,0,3.6,0.5,5.2,1.5l-2.5,6.9
	c-1.3-0.9-2.6-1.3-3.7-1.3s-2.1,0.3-2.8,0.9c-0.8,0.6-1.4,1.7-1.8,3.3c-0.4,1.6-0.7,5-0.7,10.1L75.9,47.2L75.9,47.2z"/>
<path class="st0" d="M90.2,17.1h7.3v4.1c2.6-3.2,5.7-4.8,9.4-4.8c1.9,0,3.6,0.4,5,1.2c1.4,0.8,2.6,2,3.5,3.6
	c1.3-1.6,2.7-2.8,4.3-3.6c1.5-0.8,3.2-1.2,4.9-1.2c2.2,0,4.1,0.4,5.6,1.3s2.7,2.2,3.4,4c0.5,1.3,0.8,3.4,0.8,6.2v19.2h-8V30
	c0-3-0.3-4.9-0.8-5.8c-0.7-1.1-1.9-1.7-3.4-1.7c-1.1,0-2.2,0.3-3.1,1c-1,0.7-1.7,1.7-2.1,3s-0.7,3.4-0.7,6.2v14.4h-8V30.7
	c0-2.9-0.1-4.8-0.4-5.7c-0.3-0.8-0.7-1.5-1.3-1.9c-0.6-0.4-1.4-0.6-2.4-0.6c-1.2,0-2.3,0.3-3.3,1s-1.7,1.6-2.1,2.9
	c-0.4,1.2-0.6,3.3-0.6,6.2v14.6h-8C90.2,47.2,90.2,17.1,90.2,17.1z"/>
<path class="st0" d="M166.3,0.3h1.9v49.8h-1.9V0.3z"/>
<g class="st1">
	<path class="st2" d="M241.9,47.1h-4.2v-1.8h-29.9v1.8h-4.3V5.9h38.4V47.1z M237.7,41.7v-32h-29.9v32H237.7z M233.9,30.5h-11.5
		c-0.7,0.8-1.5,1.5-2.3,2.2v3.9c1.1-0.3,2.5-0.7,4.2-1.3l0.3,3.3c-3.5,1.2-6.3,2-8.4,2.3l-1-2.9c0.6-0.4,0.8-0.9,0.8-1.6v-1.1
		c-2.2,1.1-4.1,2-5.7,2.5l-1.6-3.2c4.1-1.4,7-2.8,8.7-4.3h-5.7v-8.1h22.2V30.5z M236.2,20.7h-27v-3h11.5v-2.2h-10v-2.9h10v-1.7h4.1
		v1.7h10v2.9h-10v2.2h11.4V20.7z M229.6,27.6v-2.3h-13.7v2.3H229.6z M236.6,38.2l-2.5,2.6c-3.3-2.5-7.2-4.8-11.5-7l2.4-2.4
		c1.2,0.4,2.6,1.2,4.3,2.2c1-0.8,2-1.7,3-2.7l3.4,1.8c-1,1-2.1,1.9-3.1,2.7C233.9,36.3,235.3,37.2,236.6,38.2z"/>
	<path class="st2" d="M291.8,46h-35.3c-1.4,0-2.5-0.4-3.2-1.3s-1.1-2-1.1-3.4V10H250V6.3h41.3V10h-34.9v30.9c0,0.3,0.1,0.6,0.4,0.9
		c0.3,0.3,0.6,0.4,0.9,0.4h34.1V46z M272.5,39.4h-13.3V26.1h13.3V39.4z M284.5,23.6h-21.4V12.7h21.4V23.6z M268.5,35.8v-6.1h-5.3
		v6.1H268.5z M280.2,20v-3.7h-12.7V20H280.2z M288.8,39.4h-13.5V26.1h13.5V39.4z M284.8,35.7v-6.1h-5.6v6.1H284.8z"/>
	<path class="st2" d="M339.8,25.3h-42v-3.5h18.8c-0.3-0.8-0.7-1.7-1.2-2.6h-13V5.9h33.1v13.4h-15.4c0.3,0.6,0.7,1.5,1.1,2.6h18.6
		V25.3z M312.2,40.2c-2.6,2.2-6.4,4.4-11.4,6.6l-2.2-3.4c4.1-1.7,7.6-3.6,10.7-5.9L312.2,40.2z M335.4,36.4h-14.1v6.8
		c0,1.1-0.4,2.1-1.2,2.8c-0.8,0.7-3.5,1.1-8.2,1.1l-1.5-3.8c1.2,0.1,2.2,0.1,3.1,0.1c1.2,0,2,0,2.6-0.1c0.6-0.1,0.8-0.3,0.8-0.8
		v-6.1h-14.5v-8.8h33V36.4z M331.1,11V9.2h-24.3V11H331.1z M331.1,15.9V14h-24.3v1.9H331.1z M331,33.1v-2.3h-24.1v2.3H331z
		 M339,43.4l-2.4,3.2c-3.4-2.3-7-4.3-10.8-6l2.5-3.2C332.4,39.4,336,41.3,339,43.4z"/>
	<path class="st2" d="M351.3,37.9c-0.3,3.7-1.1,6.9-2.3,9.7l-3.4-1.6c1.1-3.1,1.8-6.1,2.1-8.9L351.3,37.9z M367.1,36.1H346v-3.7h8.8
		v-3.1h-7.6v-3.7h7.6v-2.7h-7.6V6.1h18.8v16.8h-7.4v2.7h7.5v3.7h-7.5v3.1h8.5V36.1z M354.8,19.5V9.7h-4.4v9.8H354.8z M353.9,17.8
		l-1.9,0.7c-0.2-2.4-0.4-4.7-0.9-6.9l1.9-0.7C353.4,13,353.7,15.3,353.9,17.8z M356.6,46.4l-3.7,0.5c0.1-2.3-0.2-5.2-0.9-8.8
		l3.4-0.4C356.1,40.4,356.5,43.3,356.6,46.4z M362.4,45.5l-3.6,0.6c-0.2-2.3-0.8-5-1.9-8.1l3.5-0.5C361.4,40,362,42.7,362.4,45.5z
		 M362.9,19.5V9.7h-4.3v9.8H362.9z M362.4,11.5c-0.3,2.5-0.7,4.9-1.4,7l-1.9-0.6c0.6-2,1-4.3,1.3-7L362.4,11.5z M367.5,44.2
		l-3.4,0.8c-0.4-2.2-1-4.7-2-7.3l3.3-0.7C366.3,39.1,367,41.5,367.5,44.2z M387.9,16.5h-9.5v8.1h8v22.6h-4.2v-2.7h-9.4v2.7h-4.1
		V24.6h5.5V5.3h4.2v7.2h9.5V16.5z M382.2,40.5V28.6h-9.4v11.9H382.2z"/>
</g>
</svg>
