<?xml version="1.0" encoding="utf-8"?>
<!-- Generator: Adobe Illustrator 22.1.0, SVG Export Plug-In . SVG Version: 6.00 Build 0)  -->
<svg version="1.1" id="圖層_1" xmlns="http://www.w3.org/2000/svg" xmlns:xlink="http://www.w3.org/1999/xlink" x="0px" y="0px"
	 viewBox="0 0 182 42.8" style="enable-background:new 0 0 182 42.8;" xml:space="preserve">
<title>Farmpic_title</title>
<g>
	<path d="M11.6,24.9H8.4v-2.8h3.5l0.7-5.5H9.2v-2.8h3.7l0.9-7.2h2.5l-0.9,7.2h5l0.9-7.2H24l-0.9,7.2h3.2v2.8h-3.6L22,22.2h3.4v2.8
		h-3.7l-1,8.1h-2.6l1-8.1h-5l-1,8.1h-2.6L11.6,24.9z M19.5,22.2l0.7-5.5h-5l-0.7,5.5H19.5z"/>
	<path d="M56.5,4.1c-0.2,0.3-0.5,0.6-0.7,1c3.6,3.9,9.6,8,14.6,10.2c-0.9,0.7-2.1,2.1-2.6,3.1c-4.6-2.4-10-6.5-13.9-10.8
		c-3.9,4.6-9,8.4-14.3,11.1c-0.5-0.9-1.6-2.2-2.6-3c6.4-2.8,12.8-7.6,16.3-13.1L56.5,4.1z M64.2,19.9l2.6,1.2
		c-3.1,4.3-7.7,10.2-11.6,14.9l-3.5-1.6c2.9-3.4,6.4-7.6,8.9-10.9H41.5V20h22.1L64.2,19.9z M60.1,13.9v3.2H47.7v-3.2H60.1z"/>
	<path d="M104.7,14.2c-1.5,5.9-4.2,10.4-7.6,14c2.7,2.1,5.8,3.7,9.3,4.7c-0.8,0.6-1.8,2-2.3,3c-3.6-1.2-6.8-3.1-9.4-5.4
		c-2.9,2.4-6.2,4.2-9.7,5.4c-0.4-0.9-1.4-2.2-2.1-2.8c3.5-1.2,6.7-2.7,9.5-4.9c-1.8-1.9-3.2-4.1-4.5-6.5c-0.9,1-1.8,1.9-2.9,2.7
		c-0.5-0.6-1.6-1.8-2.3-2.3c4-3.1,7.3-8.1,8.9-12.5h-9.4l2.8,0.9c-0.9,2.1-2,4.2-3.2,6.2v19.1h-3.3V21.3c-1.1,1.3-2.3,2.5-3.4,3.5
		c-0.5-0.6-1.7-2-2.5-2.6c3.7-3,7.1-7.6,9.1-12.6h-7.7V6.6h14.6c-0.5-1-1-2.1-1.6-3L90,2.5c0.8,1.2,1.7,2.9,2.3,4.1h13.2v3.1H92.1
		l2.8,0.8c-0.4,1-0.9,1.9-1.4,3h8.5l0.6-0.1L104.7,14.2z M91.8,16.4c-0.6,1-1.3,2-2,2.9c1.3,2.5,2.9,4.8,4.9,6.8
		c2.6-2.6,4.6-5.8,5.9-9.8H91.8z M95.5,22.8c-0.7-1.1-2.4-2.7-3.8-3.9l2-1.7c1.4,1.1,3.1,2.7,3.9,3.7L95.5,22.8z"/>
	<path d="M121.4,21.4c-1.4,0.4-2.8,0.8-4.2,1.2V32c0,1.7-0.4,2.6-1.4,3.2c-1,0.5-2.6,0.6-5,0.6c-0.1-0.8-0.5-2.2-1-3.1
		c1.4,0,2.9,0,3.3,0c0.5,0,0.6-0.1,0.6-0.6v-8.4c-1.4,0.4-2.8,0.8-4.1,1.1l-0.8-3.4c1.4-0.3,3.1-0.7,4.9-1.2v-7.1h-4.4V9.8h4.4v-7
		h3.4v7h3.9v3.2h-3.9v6.2l3.8-1L121.4,21.4z M140.4,9.2v26.3H137v-1.6H126v1.9h-3.3V9.2h6c0.6-2,1.2-4.4,1.4-6.3l3.9,0.4
		c-0.6,2-1.3,4.1-1.9,5.9H140.4z M126,12.3v7.5H137v-7.5H126z M137,30.7V23H126v7.7H137z"/>
	<path d="M157.4,21.4c-1.4,0.4-2.8,0.8-4.2,1.2V32c0,1.7-0.4,2.6-1.4,3.2c-1,0.5-2.6,0.6-5,0.6c-0.1-0.8-0.5-2.2-1-3.1
		c1.4,0,2.9,0,3.3,0c0.5,0,0.6-0.1,0.6-0.6v-8.4c-1.4,0.4-2.8,0.8-4.1,1.1l-0.8-3.4c1.4-0.3,3.1-0.7,4.9-1.2v-7.1h-4.4V9.8h4.4v-7
		h3.4v7h3.9v3.2h-3.9v6.2l3.8-1L157.4,21.4z M176.4,9.2v26.3H173v-1.6H162v1.9h-3.3V9.2h6c0.6-2,1.2-4.4,1.4-6.3l3.9,0.4
		c-0.6,2-1.3,4.1-1.9,5.9H176.4z M162,12.3v7.5H173v-7.5H162z M173,30.7V23H162v7.7H173z"/>
</g>
</svg>
