<?xml version="1.0" encoding="utf-8"?>
<!-- Generator: Adobe Illustrator 22.1.0, SVG Export Plug-In . SVG Version: 6.00 Build 0)  -->
<svg version="1.1" id="圖層_1" xmlns="http://www.w3.org/2000/svg" xmlns:xlink="http://www.w3.org/1999/xlink" x="0px" y="0px"
	 viewBox="0 0 395 52" style="enable-background:new 0 0 395 52;" xml:space="preserve">
<style type="text/css">
	.st0{fill:#040000;}
	.st1{enable-background:new    ;}
</style>
<title>Farmfood_title</title>
<path class="st0" d="M178.1,0.3h1.9v49.8h-1.9V0.3z"/>
<g class="st1">
	<path d="M0.6,5.8h25.1v5.6H7.3v13H23v5.6H7.3v18.3H0.6V5.8z"/>
</g>
<g class="st1">
	<path d="M30.4,32.4c0-10.6,7.1-16.7,14.9-16.7c7.8,0,14.9,6.1,14.9,16.7c0,10.5-7.1,16.5-14.9,16.5C37.5,49,30.4,42.9,30.4,32.4z
		 M53.5,32.4c0-6.7-3.1-11.2-8.1-11.2c-5,0-8.1,4.5-8.1,11.2c0,6.7,3.1,11.1,8.1,11.1C50.3,43.5,53.5,39.1,53.5,32.4z"/>
	<path d="M65.8,32.4c0-10.6,7.1-16.7,14.9-16.7c7.8,0,14.9,6.1,14.9,16.7c0,10.5-7.1,16.5-14.9,16.5C72.9,49,65.8,42.9,65.8,32.4z
		 M88.9,32.4c0-6.7-3.1-11.2-8.1-11.2c-5,0-8.1,4.5-8.1,11.2c0,6.7,3.1,11.1,8.1,11.1C85.7,43.5,88.9,39.1,88.9,32.4z"/>
	<path d="M101.3,32.4c0-10.3,6.5-16.7,13.6-16.7c3.6,0,5.9,1.4,8.5,3.6l-0.3-5.2V2.3h6.6v45.9h-5.4l-0.6-3.6h-0.2
		c-2.4,2.4-5.6,4.3-9.2,4.3C106.4,49,101.3,42.9,101.3,32.4z M123.2,39.6V24.1c-2.4-2.1-4.6-2.9-7-2.9c-4.4,0-8,4.2-8,11.1
		c0,7.2,2.8,11.2,7.8,11.2C118.6,43.5,120.8,42.3,123.2,39.6z"/>
</g>
<g class="st1">
	<path d="M225.7,4.9c-0.3,0.4-0.6,0.9-1,1.4c4.8,5.3,13,10.8,19.7,13.8c-1.2,1-2.8,2.9-3.5,4.1c-6.2-3.2-13.5-8.8-18.8-14.5
		c-5.3,6.2-12.2,11.4-19.3,14.9c-0.7-1.3-2.2-3-3.5-4.1c8.6-3.8,17.3-10.3,22-17.7L225.7,4.9z M236.1,26.2l3.5,1.7
		c-4.1,5.8-10.5,13.8-15.6,20.1l-4.7-2.2c3.9-4.6,8.6-10.3,12-14.8h-26v-4.6h29.9L236.1,26.2z M230.6,18.2v4.3h-16.8v-4.3H230.6z"/>
	<path d="M290.7,18.6c-2,7.9-5.6,14.1-10.2,18.9c3.6,2.8,7.9,5,12.6,6.4c-1.1,0.9-2.4,2.7-3.1,4c-4.9-1.6-9.1-4.1-12.7-7.3
		c-3.9,3.3-8.4,5.6-13.1,7.3c-0.5-1.2-1.9-3-2.9-3.7c4.7-1.6,9.1-3.7,12.8-6.7c-2.4-2.6-4.4-5.5-6.1-8.8c-1.2,1.4-2.5,2.6-3.9,3.7
		c-0.7-0.9-2.2-2.4-3.2-3.1c5.3-4.1,9.8-10.9,12-16.8h-12.6l3.7,1.2c-1.2,2.9-2.7,5.6-4.4,8.3v25.8h-4.5V28.2
		c-1.5,1.8-3.1,3.4-4.6,4.8c-0.7-0.8-2.3-2.7-3.4-3.5c5-4,9.5-10.3,12.3-17h-10.5V8.3h19.7c-0.7-1.3-1.4-2.9-2.2-4l4.2-1.5
		c1.1,1.7,2.3,3.9,3.1,5.5h17.8v4.2h-18l3.8,1c-0.5,1.3-1.2,2.6-1.9,4h11.4l0.8-0.2L290.7,18.6z M273.4,21.5
		c-0.8,1.3-1.8,2.7-2.7,3.9c1.7,3.4,3.9,6.5,6.6,9.2c3.5-3.5,6.2-7.8,8-13.2H273.4z M278.4,30.2c-1-1.5-3.2-3.7-5.1-5.3l2.7-2.2
		c1.9,1.5,4.2,3.6,5.3,5.1L278.4,30.2z"/>
	<path d="M320.8,28.2c-0.1,1.1-0.3,2.2-0.5,3.2h19.5v3.8h-20.5c-2.3,6.3-7.4,10.4-20.3,12.5c-0.3-1.2-1.4-3.1-2.3-4.1
		c10.6-1.5,15.3-4.2,17.5-8.4h-15.5v-3.8h16.9c0.2-1,0.4-2,0.5-3.2h-18.5v-4h19v-3.5h-14.7v-3.8h14.7v-3.3h-17.4v-4h9.8
		c-0.8-1.6-2.1-3.6-3.3-5.1l3.9-1.6c1.7,1.8,3.3,4.2,4,5.9L312,9.6h11.9c1.3-1.9,3-4.7,3.8-6.6l4.8,1.3c-1.1,1.8-2.4,3.7-3.6,5.3
		h9.9v4h-17.6v3.3h15.2v3.8h-15.2v3.5h19.6v4H320.8z M338.8,48c-4.3-2.8-13-6.9-19.5-9.4l2-3.4c6.4,2.3,15.2,6.1,19.6,8.8L338.8,48z
		"/>
	<path d="M371,4.7c-0.3,0.4-0.6,0.8-1,1.2c4.9,4.2,13.2,8.2,20.4,10.1c-1,0.9-2.3,2.7-3,3.8c-4.3-1.3-8.9-3.5-13.1-6.1v2.2h-13.2
		v-2.3c-2.3,1.5-4.9,2.9-7.4,4h27.8V33h-23.4v9.3l11.6-1.7c-0.1,1.2-0.1,2.9,0,3.8c-12.8,2.1-14.7,2.5-15.9,3.1
		c-0.3-0.9-1.3-2.6-2-3.3c0.8-0.5,2-1.7,2-3.7V17.6c-1.8,0.8-3.5,1.5-5.3,2.1c-0.6-1.1-1.8-2.7-2.8-3.6c8.4-2.5,17-7.3,21.4-13.3
		L371,4.7z M358.1,20.9v2.9H377v-2.9H358.1z M377,29.6v-2.8h-18.9v2.8H377z M372.9,12.7c-2-1.3-3.8-2.7-5.4-4.1
		c-1.6,1.5-3.3,2.8-5.1,4.1H372.9z M387.1,34.6c-2.5,1.9-5.6,3.7-8.4,5.3c2.9,1.7,5.6,3.4,7.5,4.7l-3.2,3.1c-3.9-3-11.9-7.8-18-10.9
		l3-2.6c2.2,1,4.7,2.3,7.1,3.6c3.1-1.7,6.5-4,8.7-5.8L387.1,34.6z"/>
</g>
</svg>
